<svg xmlns="http://www.w3.org/2000/svg" width="24" height="24" viewBox="0 0 24 24" fill="none" stroke="currentColor" stroke-width="2" stroke-linecap="round" stroke-linejoin="round" class="lucide lucide-puzzle">
  <path d="M19.439 7.85c-.049.322.059.648.289.878l1.568 1.568c.47.47.706 1.087.706 1.704s-.235 1.233-.706 1.704l-1.611 1.611a.98.98 0 0 1-.837.276c-.47-.07-.802-.48-.743-.95l.235-1.873a1.95 1.95 0 0 0-1.929-2.2l-1.974.04a.992.992 0 0 1-.96-.749c-.058-.467.27-.94.739-.998l1.755-.217a1.95 1.95 0 0 0 1.68-1.937l.15-2.17c.02-.36.32-.64.677-.64.357 0 .656.28.677.64l.15 2.17a1.95 1.95 0 0 0 1.68 1.937l1.755.217Z"></path>
  <path d="M11.93 5h-2a2 2 0 0 0-2 2v1.4a1.98 1.98 0 0 1-.15.747 1.98 1.98 0 0 1-2.35 1.152l-1.34-.447A2 2 0 0 0 2 11.764v2.472a2 2 0 0 0 2.09 1.912l1.33-.132a2 2 0 0 1 2.19 2.847l-.8 1.6A2 2 0 0 0 8.6 22h2.8a2 2 0 0 0 1.79-1.106l.8-1.6a2 2 0 0 1 2.19-2.847l1.33.132A2 2 0 0 0 20 15.764v-2.472a2 2 0 0 0-2.09-1.912l-1.34.447a1.98 1.98 0 0 1-2.35-1.152 1.98 1.98 0 0 1-.15-.747V7a2 2 0 0 0-2-2Z"></path>
</svg>
