<svg width="800" height="600" viewBox="0 0 800 600" xmlns="http://www.w3.org/2000/svg">
  <g stroke="#5c6cf5" stroke-opacity="0.2" fill="none">
    <circle cx="100" cy="100" r="4" fill="#5c6cf5" fill-opacity="0.2" />
    <circle cx="200" cy="120" r="4" fill="#5c6cf5" fill-opacity="0.2" />
    <circle cx="300" cy="150" r="4" fill="#5c6cf5" fill-opacity="0.2" />
    <circle cx="400" cy="100" r="4" fill="#5c6cf5" fill-opacity="0.2" />
    <circle cx="500" cy="130" r="4" fill="#5c6cf5" fill-opacity="0.2" />
    <circle cx="600" cy="110" r="4" fill="#5c6cf5" fill-opacity="0.2" />
    <circle cx="700" cy="140" r="4" fill="#5c6cf5" fill-opacity="0.2" />
    
    <circle cx="120" cy="200" r="4" fill="#5c6cf5" fill-opacity="0.2" />
    <circle cx="220" cy="220" r="4" fill="#5c6cf5" fill-opacity="0.2" />
    <circle cx="320" cy="250" r="4" fill="#5c6cf5" fill-opacity="0.2" />
    <circle cx="420" cy="200" r="4" fill="#5c6cf5" fill-opacity="0.2" />
    <circle cx="520" cy="230" r="4" fill="#5c6cf5" fill-opacity="0.2" />
    <circle cx="620" cy="210" r="4" fill="#5c6cf5" fill-opacity="0.2" />
    <circle cx="720" cy="240" r="4" fill="#5c6cf5" fill-opacity="0.2" />
    
    <circle cx="140" cy="300" r="4" fill="#5c6cf5" fill-opacity="0.2" />
    <circle cx="240" cy="320" r="4" fill="#5c6cf5" fill-opacity="0.2" />
    <circle cx="340" cy="350" r="4" fill="#5c6cf5" fill-opacity="0.2" />
    <circle cx="440" cy="300" r="4" fill="#5c6cf5" fill-opacity="0.2" />
    <circle cx="540" cy="330" r="4" fill="#5c6cf5" fill-opacity="0.2" />
    <circle cx="640" cy="310" r="4" fill="#5c6cf5" fill-opacity="0.2" />
    <circle cx="740" cy="340" r="4" fill="#5c6cf5" fill-opacity="0.2" />
    
    <circle cx="160" cy="400" r="4" fill="#5c6cf5" fill-opacity="0.2" />
    <circle cx="260" cy="420" r="4" fill="#5c6cf5" fill-opacity="0.2" />
    <circle cx="360" cy="450" r="4" fill="#5c6cf5" fill-opacity="0.2" />
    <circle cx="460" cy="400" r="4" fill="#5c6cf5" fill-opacity="0.2" />
    <circle cx="560" cy="430" r="4" fill="#5c6cf5" fill-opacity="0.2" />
    <circle cx="660" cy="410" r="4" fill="#5c6cf5" fill-opacity="0.2" />
    <circle cx="760" cy="440" r="4" fill="#5c6cf5" fill-opacity="0.2" />
    
    <circle cx="180" cy="500" r="4" fill="#5c6cf5" fill-opacity="0.2" />
    <circle cx="280" cy="520" r="4" fill="#5c6cf5" fill-opacity="0.2" />
    <circle cx="380" cy="550" r="4" fill="#5c6cf5" fill-opacity="0.2" />
    <circle cx="480" cy="500" r="4" fill="#5c6cf5" fill-opacity="0.2" />
    <circle cx="580" cy="530" r="4" fill="#5c6cf5" fill-opacity="0.2" />
    <circle cx="680" cy="510" r="4" fill="#5c6cf5" fill-opacity="0.2" />
    <circle cx="780" cy="540" r="4" fill="#5c6cf5" fill-opacity="0.2" />
    
    <!-- Horizontal connections -->
    <line x1="100" y1="100" x2="200" y2="120" />
    <line x1="200" y1="120" x2="300" y2="150" />
    <line x1="300" y1="150" x2="400" y2="100" />
    <line x1="400" y1="100" x2="500" y2="130" />
    <line x1="500" y1="130" x2="600" y2="110" />
    <line x1="600" y1="110" x2="700" y2="140" />
    
    <line x1="120" y1="200" x2="220" y2="220" />
    <line x1="220" y1="220" x2="320" y2="250" />
    <line x1="320" y1="250" x2="420" y2="200" />
    <line x1="420" y1="200" x2="520" y2="230" />
    <line x1="520" y1="230" x2="620" y2="210" />
    <line x1="620" y1="210" x2="720" y2="240" />
    
    <line x1="140" y1="300" x2="240" y2="320" />
    <line x1="240" y1="320" x2="340" y2="350" />
    <line x1="340" y1="350" x2="440" y2="300" />
    <line x1="440" y1="300" x2="540" y2="330" />
    <line x1="540" y1="330" x2="640" y2="310" />
    <line x1="640" y1="310" x2="740" y2="340" />
    
    <line x1="160" y1="400" x2="260" y2="420" />
    <line x1="260" y1="420" x2="360" y2="450" />
    <line x1="360" y1="450" x2="460" y2="400" />
    <line x1="460" y1="400" x2="560" y2="430" />
    <line x1="560" y1="430" x2="660" y2="410" />
    <line x1="660" y1="410" x2="760" y2="440" />
    
    <line x1="180" y1="500" x2="280" y2="520" />
    <line x1="280" y1="520" x2="380" y2="550" />
    <line x1="380" y1="550" x2="480" y2="500" />
    <line x1="480" y1="500" x2="580" y2="530" />
    <line x1="580" y1="530" x2="680" y2="510" />
    <line x1="680" y1="510" x2="780" y2="540" />
    
    <!-- Vertical connections -->
    <line x1="100" y1="100" x2="120" y2="200" />
    <line x1="120" y1="200" x2="140" y2="300" />
    <line x1="140" y1="300" x2="160" y2="400" />
    <line x1="160" y1="400" x2="180" y2="500" />
    
    <line x1="200" y1="120" x2="220" y2="220" />
    <line x1="220" y1="220" x2="240" y2="320" />
    <line x1="240" y1="320" x2="260" y2="420" />
    <line x1="260" y1="420" x2="280" y2="520" />
    
    <line x1="300" y1="150" x2="320" y2="250" />
    <line x1="320" y1="250" x2="340" y2="350" />
    <line x1="340" y1="350" x2="360" y2="450" />
    <line x1="360" y1="450" x2="380" y2="550" />
    
    <line x1="400" y1="100" x2="420" y2="200" />
    <line x1="420" y1="200" x2="440" y2="300" />
    <line x1="440" y1="300" x2="460" y2="400" />
    <line x1="460" y1="400" x2="480" y2="500" />
    
    <line x1="500" y1="130" x2="520" y2="230" />
    <line x1="520" y1="230" x2="540" y2="330" />
    <line x1="540" y1="330" x2="560" y2="430" />
    <line x1="560" y1="430" x2="580" y2="530" />
    
    <line x1="600" y1="110" x2="620" y2="210" />
    <line x1="620" y1="210" x2="640" y2="310" />
    <line x1="640" y1="310" x2="660" y2="410" />
    <line x1="660" y1="410" x2="680" y2="510" />
    
    <line x1="700" y1="140" x2="720" y2="240" />
    <line x1="720" y1="240" x2="740" y2="340" />
    <line x1="740" y1="340" x2="760" y2="440" />
    <line x1="760" y1="440" x2="780" y2="540" />
    
    <!-- Diagonal connections -->
    <line x1="100" y1="100" x2="220" y2="220" />
    <line x1="200" y1="120" x2="320" y2="250" />
    <line x1="300" y1="150" x2="420" y2="200" />
    <line x1="400" y1="100" x2="520" y2="230" />
    <line x1="500" y1="130" x2="620" y2="210" />
    <line x1="600" y1="110" x2="720" y2="240" />
    
    <line x1="120" y1="200" x2="240" y2="320" />
    <line x1="220" y1="220" x2="340" y2="350" />
    <line x1="320" y1="250" x2="440" y2="300" />
    <line x1="420" y1="200" x2="540" y2="330" />
    <line x1="520" y1="230" x2="640" y2="310" />
    <line x1="620" y1="210" x2="740" y2="340" />
  </g>
</svg>

