<svg width="800" height="600" viewBox="0 0 800 600" xmlns="http://www.w3.org/2000/svg">
  <g stroke="#5c6cf5" stroke-opacity="0.2" fill="none">
    <circle cx="100" cy="100" r="5" fill="#5c6cf5" fill-opacity="0.2" />
    <circle cx="300" cy="150" r="5" fill="#5c6cf5" fill-opacity="0.2" />
    <circle cx="500" cy="100" r="5" fill="#5c6cf5" fill-opacity="0.2" />
    <circle cx="700" cy="200" r="5" fill="#5c6cf5" fill-opacity="0.2" />
    <circle cx="200" cy="300" r="5" fill="#5c6cf5" fill-opacity="0.2" />
    <circle cx="400" cy="350" r="5" fill="#5c6cf5" fill-opacity="0.2" />
    <circle cx="600" cy="300" r="5" fill="#5c6cf5" fill-opacity="0.2" />
    <circle cx="150" cy="450" r="5" fill="#5c6cf5" fill-opacity="0.2" />
    <circle cx="350" cy="500" r="5" fill="#5c6cf5" fill-opacity="0.2" />
    <circle cx="550" cy="450" r="5" fill="#5c6cf5" fill-opacity="0.2" />
    <circle cx="700" cy="500" r="5" fill="#5c6cf5" fill-opacity="0.2" />
    
    <line x1="100" y1="100" x2="300" y2="150" />
    <line x1="300" y1="150" x2="500" y2="100" />
    <line x1="500" y1="100" x2="700" y2="200" />
    <line x1="100" y1="100" x2="200" y2="300" />
    <line x1="300" y1="150" x2="400" y2="350" />
    <line x1="500" y1="100" x2="600" y2="300" />
    <line x1="200" y1="300" x2="400" y2="350" />
    <line x1="400" y1="350" x2="600" y2="300" />
    <line x1="200" y1="300" x2="150" y2="450" />
    <line x1="400" y1="350" x2="350" y2="500" />
    <line x1="600" y1="300" x2="550" y2="450" />
    <line x1="150" y1="450" x2="350" y2="500" />
    <line x1="350" y1="500" x2="550" y2="450" />
    <line x1="550" y1="450" x2="700" y2="500" />
    <line x1="300" y1="150" x2="200" y2="300" />
    <line x1="500" y1="100" x2="400" y2="350" />
    <line x1="700" y1="200" x2="600" y2="300" />
  </g>
</svg>

